# AST/ASF file generated using VICON BodyLanguage
# -----------------------------------------------
:version 1.10
:name VICON
:units
  mass 1.0
  length 0.45
  angle deg
:documentation
   .ast/.asf automatically generated from VICON data using
   VICON BodyBuilder and BodyLanguage model FoxedUp or BRILLIANT.MOD
:root
   order TX TY TZ RX RY RZ
   axis XYZ
   position 0 0 0  
   orientation 0 0 0 
:bonedata
  begin
     id 1 
     name lhipjoint
     direction 0.440178 -0.822639 0.359871 
     length 2.53113 
     axis 0 0 0  XYZ
  end
  begin
     id 2 
     name lfemur
     direction 0.34202 -0.939693 0  
     length 7.88132  
     axis 0 0 20  XYZ
    dof rx ry rz
    limits (-160.0 20.0)
           (-70.0 70.0)
           (-60.0 70.0)
  end
  begin
     id 3 
     name ltibia
     direction 0.34202 -0.939693 0   
     length 8.43783   
     axis 0 0 20   XYZ
    dof rx
    limits (-10.0 170.0)
  end
  begin
     id 4 
     name lfoot
     direction 0.0886351 -0.243523 0.965837   
     length 2.63414   
     axis -90 7.62852e-016 20   XYZ
    dof rx rz
    limits (-45.0 90.0)
           (-70.0 20.0)
  end
  begin
     id 5 
     name ltoes
     direction 1.53703e-011 -4.21717e-011 1   
     length 1.31427   
     axis -90 7.62852e-016 20   XYZ
    dof rx
    limits (-90.0 20.0)
  end
  begin
     id 6 
     name rhipjoint
     direction -0.399779 -0.839773 0.367367   
     length 2.47948  
     axis 0 0 0  XYZ 
  end
  begin
     id 7 
     name rfemur
     direction -0.34202 -0.939693 0   
     length 7.74806   
     axis 0 0 -20   XYZ
    dof rx ry rz
    limits (-160.0 20.0)
           (-70.0 70.0)
           (-70.0 60.0)
  end
  begin
     id 8 
     name rtibia
     direction -0.34202 -0.939693 0   
     length 8.74432   
     axis 0 0 -20   XYZ
    dof rx
    limits (-10.0 170.0)
 end
 begin
     id 9 
     name rfoot
     direction -0.108514 -0.298139 0.948334   
     length 2.66102  
     axis -90 -7.62852e-016 -20   XYZ
    dof rx rz
    limits (-45.0 90.0)
           (-20.0 70.0)
  end
  begin
     id 10 
     name rtoes
     direction -1.53392e-011 -4.22077e-011 1   
     length 1.31983   
     axis -90 -7.62852e-016 -20   XYZ
    dof rx
    limits (-90.0 20.0)
  end
  begin
     id 11 
     name lowerback
     direction 0.0113257 0.999866 0.0118602   
     length 2.58694   
     axis 0 0 0   XYZ
    dof rx ry rz
    limits (-20.0 45.0)
           (-30.0 30.0)
           (-30.0 30.0)
  end
  begin
     id 12 
     name upperback
     direction -0.0164747 0.995193 -0.0965375   
     length 2.52368   
     axis 0 0 0   XYZ
    dof rx ry rz
    limits (-20.0 45.0)
           (-30.0 30.0)
           (-30.0 30.0)
  end
  begin
     id 13 
     name thorax
     direction -0.0194301 0.99433 -0.104552   
     length 2.56099   
     axis 0 0 0   XYZ
    dof rx ry rz
    limits (-20.0 45.0)
           (-30.0 30.0)
           (-30.0 30.0)
  end
  begin
     id 14 
     name lowerneck
     direction 0.0148543 0.995587 -0.092657   
     length 1.71582   
     axis 0 0 0   XYZ
    dof rx ry rz
    limits (-20.0 45.0)
           (-30.0 30.0)
           (-30.0 30.0)
  end
  begin
     id 15 
     name upperneck
     direction -0.0135467 0.993656 -0.111639   
     length 1.68937   
     axis 0 0 0   XYZ
    dof rx ry rz
    limits (-20.0 45.0)
           (-30.0 30.0)
           (-30.0 30.0)
  end
  begin
     id 16
     name head
     direction -0.00615349 0.999547 -0.029448  
     length 1.7462  
     axis 0 0 0   XYZ
    dof rx ry rz
    limits (-20.0 45.0)
           (-30.0 30.0)
           (-30.0 30.0)
  end
  begin
     id 17 
     name lclavicle
     direction 0.988267 0.149885 0.0293713  
     length 4.47222  
     axis 0 0 0   XYZ
    dof ry rz
    limits (-20.0 10.0)
           (0.0 20.0)
  end
  begin
     id 18 
     name lhumerus
     direction 1 -4.48986e-011 -1.14833e-027   
     length 5.37148   
     axis 180 -30 -90   XYZ
    dof rx ry rz
    limits (-60.0 90.0)
           (-90.0 90.0)
           (-90.0 90.0)
  end
  begin
     id 19
     name lradius
     direction 0.999998 0.00170963 -0.000987055   
     length 3.94212   
     axis 180 -30 -90   XYZ
    dof rx
    limits (-10.0 170.0)
  end
  begin
     id 20
     name lwrist
     direction 0.999998 7.53149e-005 -0.00194706   
     length 1.97106   
     axis 4.65056e-015 90 90   XYZ
    dof ry
    limits (-180.0 0.0)
 end
  begin
     id 21 
     name lhand
     direction 1 -4.48973e-011 -1.31746e-026   
     length 1.17917   
     axis 8.4065e-015 90 90   XYZ
    dof rx rz
    limits (-90.0 90.0)
           (-45.0 45.0)
  end
  begin
     id 22 
     name lfingers
     direction 1 -4.49107e-011 -2.63492e-026   
     length 0.950679   
     axis 1.6813e-014 90 90   XYZ
    dof rx
    limits (0.0 90.0)
  end
  begin
     id 23
     name lthumb
     direction 0.707107 -6.35048e-011 0.707107   
     length 1.36499   
     axis -90 45 2.85299e-015   XYZ
    dof rx rz
    limits (-45.0 45.0)
           (-45.0 45.0)
  end
  begin
     id 24 
     name rclavicle
     direction -0.996699 0.0642895 -0.0495725   
     length 4.62611  
     axis 0 0 0   XYZ 
    dof ry rz
    limits (-10.0 20.0)
           (-20.0 0.0)
  end
  begin
     id 25 
     name rhumerus
     direction -1 -4.48919e-011 -2.41059e-027  
     length 5.4981   
     axis 180 30 90   XYZ
    dof rx ry rz
    limits (-90.0 60.0)
           (-90.0 90.0)
           (-90.0 90.0)
  end
  begin
     id 26 
     name rradius
     direction -0.999999 0.00118101 -0.000681858   
     length 3.48381   
     axis 180 30 90   XYZ
    dof rx
    limits (-10.0 170.0)
  end
  begin
     id 27 
     name rwrist
     direction -0.999999 0.000321823 -0.00132288   
     length 1.7419   
     axis 4.65056e-015 -90 -90   XYZ
    dof ry
    limits (-180.0 0.0)
  end
  begin
     id 28
     name rhand
     direction -1 -4.49022e-011 -1.31746e-026   
     length 1.34932   
     axis 8.4065e-015 -90 -90   XYZ
    dof rx rz
    limits (-90.0 90.0)
           (-45.0 45.0)
  end
  begin
     id 29
     name rfingers
     direction -1 -4.49178e-011 -2.63492e-026   
     length 1.08785   
     axis 1.6813e-014 -90 -90   XYZ
    dof rx
    limits (0.0 90.0)
  end
  begin
     id 30
     name rthumb
     direction -0.707107 -6.34713e-011 0.707107   
     length 1.56195   
     axis -90 -45 -2.85299e-015   XYZ
    dof rx rz
    limits (-45.0 45.0)
           (-45.0 45.0)
  end
:hierarchy
  begin
    root lhipjoint rhipjoint lowerback
    lhipjoint lfemur
    lfemur ltibia
    ltibia lfoot
    lfoot ltoes
    rhipjoint rfemur
    rfemur rtibia
    rtibia rfoot
    rfoot rtoes
    lowerback upperback
    upperback thorax
    thorax lowerneck lclavicle rclavicle
    lowerneck upperneck
    upperneck head
    lclavicle lhumerus
    lhumerus lradius
    lradius lwrist
    lwrist lhand lthumb
    lhand lfingers
    rclavicle rhumerus
    rhumerus rradius
    rradius rwrist
    rwrist rhand rthumb
    rhand rfingers
  end

#!OML:ASF X:\für Bonn\!DataBase\2005_08_10_Bjorn_Final\c3d\bjorn.ASF
:FULLY-SPECIFIED
:DEGREES
1
root 0.757116 19.201 1.0342 -172.201 -5.37912 180.011
lowerback -4.72056 0.93646 5.2128
upperback 6.44282 0.501287 -0.171727
thorax 9.56785 0.502209 -3.0617
lowerneck -10.7398 -9.34199 -2.52304
upperneck 4.25077 -12.4375 3.98754
head 3.74174 -6.04437 0.901259
rclavicle -1.05356e-014 7.55382e-015
rhumerus 81.9218 -0.677931 -75.2413
rradius 8.33108
rwrist 50.5368
rhand -10.7072 6.57681
rfingers 7.12502
rthumb 15.3026 -22.8371
lclavicle -1.05356e-014 7.55382e-015
lhumerus 84.6477 -6.66856 51.0638
lradius 12.289
lwrist -35.755
lhand -16.6691 -6.81597
lfingers 7.12502
lthumb 9.55462 22.9474
rfemur -17.9882 -24.3034 18.591
rtibia 33.6706
rfoot -14.0553 22.7375
rtoes -10.7186
lfemur -12.0178 9.71105 -16.2338
ltibia 28.4123
lfoot -15.6765 -13.9328
ltoes 0.217105
2
root 0.759829 19.1812 1.03387 -172.261 -5.38378 180.036
lowerback -4.66919 0.892535 5.20202
upperback 6.44731 0.446421 -0.192047
thorax 9.53685 0.474351 -3.08482
lowerneck -10.8294 -9.36256 -2.44072
upperneck 4.12353 -12.4658 3.90797
head 3.70166 -6.06248 0.85884
rclavicle -2.08724e-015 -3.57812e-015
rhumerus 81.8827 -0.569277 -75.2473
rradius 8.34696
rwrist 50.41
rhand -10.8726 6.59006
rfingers 7.12502
rthumb 15.1432 -22.8359
lclavicle -2.08724e-015 -3.57812e-015
lhumerus 84.7097 -6.64984 50.7811
lradius 12.4172
lwrist -35.2519
lhand -16.2197 -6.89071
lfingers 7.12502
lthumb 9.9882 22.8523
rfemur -17.892 -24.1054 18.6137
rtibia 33.7114
rfoot -14.7002 22.5681
rtoes -10.9472
lfemur -11.8521 9.07553 -16.2312
ltibia 28.3367
lfoot -16.212 -13.2302
ltoes -0.143008
3
root 0.762914 19.1649 1.03676 -172.318 -5.36272 180.011
lowerback -4.58243 0.864476 5.13743
upperback 6.4508 0.421619 -0.232234
thorax 9.48538 0.457603 -3.09505
lowerneck -10.8892 -9.37278 -2.32659
upperneck 3.97996 -12.4853 3.83036
head 3.64751 -6.07661 0.814648
rclavicle 8.05078e-015 -1.47101e-014
rhumerus 81.8039 -0.489041 -75.2524
rradius 8.39812
rwrist 50.1286
rhand -10.9522 6.60917
rfingers 7.12502
rthumb 15.0666 -22.8226
lclavicle 8.05078e-015 -1.47101e-014
lhumerus 84.7857 -6.67874 50.5421
lradius 12.532
lwrist -34.7296
lhand -15.8678 -6.95248
lfingers 7.12502
lthumb 10.3277 22.7739
rfemur -17.8101 -23.862 18.5868
rtibia 33.7398
rfoot -15.2588 22.3397
rtoes -11.3173
lfemur -11.697 8.40288 -16.2963
ltibia 28.2632
lfoot -16.7133 -12.4355
ltoes -0.609446
4
root 0.766087 19.1534 1.04362 -172.357 -5.36025 179.977
lowerback -4.49965 0.836831 5.05514
upperback 6.47424 0.395518 -0.266788
thorax 9.4579 0.438879 -3.0895
lowerneck -10.8531 -9.37687 -2.21172
upperneck 3.68781 -12.4995 3.81117
head 3.52711 -6.09053 0.798456
rclavicle 1.07344e-014 -1.35174e-014
rhumerus 81.6963 -0.419284 -75.2451
rradius 8.51574
rwrist 49.7916
rhand -10.9556 6.62464
rfingers 7.12502
rthumb 15.0633 -22.8073
lclavicle 1.07344e-014 -1.35174e-014
lhumerus 84.8407 -6.71265 50.5663
lradius 12.6576
lwrist -34.4203
lhand -15.5711 -7.06869
lfingers 7.12502
lthumb 10.6139 22.6433
rfemur -17.7361 -23.3495 18.5669
rtibia 33.7579
rfoot -15.8982 21.7823
rtoes -11.8798
lfemur -11.5885 7.78166 -16.3665
ltibia 28.1945
lfoot -17.0644 -11.7373
ltoes -1.08252
5
root 0.769102 19.1457 1.05504 -172.383 -5.34448 179.955
lowerback -4.38452 0.801519 4.96907
upperback 6.50467 0.356972 -0.276865
thorax 9.41742 0.411777 -3.05733
lowerneck -10.9322 -9.37503 -2.20711
upperneck 3.49344 -12.4963 3.84057
head 3.47563 -6.09225 0.808458
rclavicle -4.17448e-015 -1.88845e-014
rhumerus 81.5963 -0.331412 -75.2089
rradius 8.67632
rwrist 49.3344
rhand -10.8562 6.6931
rfingers 7.12502
rthumb 15.159 -22.7317
lclavicle -4.17448e-015 -1.88845e-014
lhumerus 84.8637 -6.72804 50.3795
lradius 12.8115
lwrist -33.7332
lhand -15.4356 -7.09514
lfingers 7.12502
lthumb 10.7446 22.6101
rfemur -17.6806 -22.6228 18.572
rtibia 33.7673
rfoot -16.4744 21.0225
rtoes -12.469
lfemur -11.5184 7.20005 -16.4286
ltibia 28.1375
lfoot -17.3587 -11.0294
ltoes -1.73845
6
root 0.772432 19.1413 1.06934 -172.381 -5.30733 179.902
lowerback -4.25795 0.781459 4.84663
upperback 6.51627 0.346319 -0.300744
thorax 9.35118 0.396181 -3.01573
lowerneck -10.931 -9.37371 -2.20922
upperneck 3.29529 -12.4952 3.89283
head 3.41007 -6.09518 0.830836
rclavicle 1.68967e-015 -9.54166e-015
rhumerus 81.4557 -0.243119 -75.1754
rradius 8.79751
rwrist 49.0118
rhand -10.8064 6.7485
rfingers 7.12502
rthumb 15.207 -22.6726
lclavicle 1.68967e-015 -9.54166e-015
lhumerus 84.879 -6.82779 50.1093
lradius 12.9266
lwrist -32.6906
lhand -15.4997 -7.1068
lfingers 7.12502
lthumb 10.6828 22.6016
rfemur -17.6685 -21.8003 18.559
rtibia 33.7681
rfoot -17.0143 20.154
rtoes -13.212
lfemur -11.5083 6.64452 -16.5359
ltibia 28.1048
lfoot -17.5651 -10.2826
ltoes -2.7162
7
root 0.775217 19.1376 1.08755 -172.441 -5.27047 179.865
lowerback -4.03638 0.761819 4.73466
upperback 6.55479 0.333456 -0.31531
thorax 9.25841 0.377609 -2.97072
lowerneck -10.9653 -9.35996 -2.16774
upperneck 3.11941 -12.4832 3.93434
head 3.35466 -6.09187 0.841145
rclavicle -6.06293e-015 -1.11319e-014
rhumerus 81.3183 -0.180757 -75.1308
rradius 8.85804
rwrist 48.8382
rhand -10.8574 6.83169
rfingers 7.12502
rthumb 15.1579 -22.5932
lclavicle -6.06293e-015 -1.11319e-014
lhumerus 84.7887 -6.96786 49.9512
lradius 13.1335
lwrist -31.7669
lhand -15.7188 -7.08765
lfingers 7.12502
lthumb 10.4715 22.6316
rfemur -17.5919 -20.8934 18.5373
rtibia 33.7621
rfoot -17.516 19.1696
rtoes -14.0644
lfemur -11.4645 6.05048 -16.617
ltibia 28.1193
lfoot -17.7096 -9.54436
ltoes -3.54562
8
root 0.777001 19.1375 1.10958 -172.497 -5.21906 179.788
lowerback -3.78535 0.732573 4.57612
upperback 6.6056 0.309676 -0.325216
thorax 9.1598 0.349498 -2.89594
lowerneck -11.0822 -9.35406 -2.24131
upperneck 3.04975 -12.4702 4.01548
head 3.3643 -6.08447 0.87569
rclavicle 2.00773e-014 -5.36719e-015
rhumerus 81.2006 -0.0822304 -75.0684
rradius 8.92725
rwrist 48.7397
rhand -10.9181 6.92383
rfingers 7.12502
rthumb 15.0994 -22.5054
lclavicle 2.00773e-014 -5.36719e-015
lhumerus 84.5681 -7.09552 50.2807
lradius 13.3567
lwrist -31.4772
lhand -15.986 -7.13934
lfingers 7.12502
lthumb 10.2136 22.5927
rfemur -17.535 -19.9249 18.4786
rtibia 33.753
rfoot -18.0164 18.0387
rtoes -15.2394
lfemur -11.4753 5.55802 -16.7426
ltibia 28.1827
lfoot -17.762 -8.88483
ltoes -4.53745
